<?xml version="1.0" encoding="utf-8"?>
<!-- Generator: Adobe Illustrator 18.0.0, SVG Export Plug-In . SVG Version: 6.00 Build 0)  -->
<!DOCTYPE svg PUBLIC "-//W3C//DTD SVG 1.1//EN" "http://www.w3.org/Graphics/SVG/1.1/DTD/svg11.dtd">
<svg version="1.1" id="Layer_1" xmlns="http://www.w3.org/2000/svg" xmlns:xlink="http://www.w3.org/1999/xlink" x="0px" y="0px"
	 viewBox="-1345 450.7 595.3 92.2" enable-background="new -1345 450.7 595.3 92.2" xml:space="preserve">
<g>
	<path fill="#FFFFFF" d="M-1345,542.7c0-30.8,0-61.2,0-91.9c0.8,0,1.6,0,2.4,0c130.4,0,260.5,0,390.9,0c1.6,0,3,1,4.6,1.4
		c0.6,0.2,1.4,0.2,1.8,0c2.4-1.6,4.8-2,6.6-0.8c1.8,1.4,2.8,4.8,2.4,7.2c-0.4,2.2-1.6,3.6-3.4,4.6c-0.6,0.4-1.2,1.6-1,2.2
		c1,2.8,2.2,5.4,3.6,8.7c2-3.6,4-6.6,5.2-9.9c0.8-2.6,0.6-5.6,0.8-8.7c0.2-1.2,0.4-2.6,1-3.6c1.4-2.2,3.6-1.6,5.6-1.2
		c2,0.4,3.2,2.2,3.4,4.2c0.4,3.6-0.2,6.6-3.6,8.9c-0.8,0.6-1.2,3.2-0.6,4.4c2,4,1.4,8.4,2,12.5c0.2,1,0.8,2,1.2,3c0.2,0,0.4,0,0.6,0
		c1.2-3.6,2.6-7.2,3.8-11.1c1-3.4,2.8-6,5.8-7.8c2.6-1.6,3.8-4,3.6-7c0-2.4-0.6-4.8,1.8-6.6c1.8-1.4,3.6-1.2,5.6-0.6
		c1.8,0.6,2.4,2.4,2.6,4.2c0,0.8,0,1.8,0,2.6c0,2.8-1,4-3.4,5.2c-0.6,0.2-1.4,1.2-1.4,1.6c0.6,3.2,1.6,6.2,2.8,9.5
		c2.2-2.8,2.6-6.2,3.4-9.5c0.8-3.4,1.4-7,2.6-10.5s3.8-4.4,7-3.4c1.6,0.4,3.6,2.8,3.4,6c-0.2,3-0.8,5.6-3.8,7
		c-1.6,0.8-1.4,2.6-1,3.8c0.6,2.2,1.4,4.4,2.6,6.6c1,1.8,1.4,3.4,0.8,5.6c-1,4.2,0.4,6.2,4.4,8.4c2,1,3.6,2.4,5.4,3.8
		c1.2,1,1.8,2.6,0.6,3.8c-1.2,1.2-2.6,0.6-3.8-0.6c-1.6-1.4-3.2-3-4.8-4.2c-0.6-0.4-1.2-0.6-2.4-1.2c0.2,11.7,5,21.3,9.7,31.8
		c2.4-3.4,4.8-6.4,7-9.7c2.8-4.4,3.2-9.5,2.6-14.9c-0.4-2.8,0.8-5.8,1.4-8.9c0.2-0.8,0.2-1.6,0.4-2.4c-0.2,0-0.4-0.2-0.8-0.2
		c-1,3.8-2,7.6-3,11.3c0,0.2,0,0.4,0,0.4c-0.6,1.4-1.2,3.2-3,2.8c-2-0.4-1.4-2.4-1.2-3.6c0.4-3.4,0.8-6.6,1.2-10.1
		c1-8,2.8-15.9,9.3-21.5c1.8-1.6,1.8-3.6,1.6-5.8c-0.2-0.8-0.2-1.8-0.4-2.6c-0.2-2.4,0.6-4.4,2.8-5.6c2-1,4.2-0.6,5.8,0.8
		c1.8,1.6,2.6,3.8,2,6.2c-0.6,2.4-1.6,4.8-4.6,5.4c-0.6,6-1.4,12.1,1.6,18.1c2.2-1.6,4-3,5.8-4.4c1-0.8,1.8-1,2.8,0.2
		c2.8,3.6,5.8,7,8.9,10.9c-1,0.8-1.8,1.4-2.8,2.2c-1.6,1.4-3.6,2.4-4.2,4.8c-0.2,0.6-1.2,1.6-1.6,1.6c-2.6-0.4-3.8,1.6-5.4,2.8
		c-1.4,1-2,1.4-2.8-0.4c-0.2-0.4-0.8-0.6-1.4-1c-0.2,3.6-0.6,6.6-0.4,9.9c0.2,5.6-0.8,11.1-1.8,16.5c-0.6,3.2-1,6.4-1.2,9.7
		c-0.2,2.4,2.6,5.2,5.2,5.6c0.4,0,1,0,1.4,0.4c0.4,0.2,0.8,0.8,0.6,1c0,0.4-0.6,1-0.8,1c-2.2,0.2-4.4,0.2-6.6,0.2c-2,0-4,0-6.4,0
		c0-2,0-3.6,0-5.8c-3.8,1.6-7.2,3-10.7,4.4c-0.8,0.4-1.4,1.6-1.8,1.6c-1.2-0.4-2.6-1-3.4-2c-1.8-2-3.6-4.2-5.2-6.4
		c-1-1.4-0.6-2.6,1-3.4c0.6-0.4,1.2-0.8,1.8-1.2c1.2-0.8,1.2-1.8,0.6-3.2c-2.4-4.2-4.6-8.4-6.8-12.7c-1.2-2.4-2.2-4.8-3.2-6.8
		c-3.6,6.2-7.2,12.9-10.9,19.3c-1.2,2.2-1.8,4.6-2.8,7c-0.8,1.8,0.4,2,1.6,2.2c1,0,2.2,0,3.2,0c0.4,0,1,0.6,1.2,1
		c0.2,0.4-0.4,1-0.6,1.2c-0.6,0.6-1.4,1.2-2.4,1.8c0.8,0.2,1.4,0.2,1.8,0.4c0.4,0.2,1,1,0.8,1.2c-0.2,0.4-0.8,1-1.2,1
		c-4.2,0-8.2,0-12.7,0c0-2,0-3.2,0-5c-1.6,1-2.8,1.8-4.2,2.4c-2.4,1-4.6,2-7,2.8c-0.6,0.2-1.2-0.2-1.8-0.2c-2.8,0-5.4-0.2-8.2-0.2
		c-0.4,0-0.8,0.2-1.2,0.2c-7.6,0.2-15.3,0.4-22.9,0.4c-127.5,0-255.1,0-382.4,0C-1342.8,542.7-1343.8,542.7-1345,542.7z
		 M-962.2,528.2c-0.2-0.2-0.4-0.6-0.6-0.8c-3.4-1.6-8,1-7.2,5.2c0.4,2,1.4,4,3.2,4.6c2.2,0.8,4.8,0,6.2-2c1.2-1.4,1-4-0.2-5.8
		C-961.4,529-961.8,528.6-962.2,528.2z M-1235.6,458.6c-4.8,0-9.9,0-14.7,0c-0.6,0-1.6,0.4-2,0.8c-1,1.6-0.2,3.2,1.6,3.6
		c2.6,0.6,5.6,1,6.6,3.8c0.8,2.2,0.8,4.8,0.6,7c-0.4,6-1.2,12.3-1.6,18.3c-0.4,3.6-0.6,7.4-1,11.1c-0.6,5.6-1,11.5-1.8,17.1
		c-0.2,2-0.8,4.2-1.8,6c-0.6,1-2.2,1.8-3.6,2c-3,0.4-5.2-1.6-6.6-5.4c-5.4-15.3-10.9-30.6-16.5-46.1c-2-5.4-3.8-11.1-6-16.3
		c-1.2-2.8-2.4-2.8-4.2,0c-3.8,6.6-7.6,13.1-11.5,19.7c-6.2,11.3-12.5,22.5-18.7,33.6c-3.4,6-6.8,12.5-13.3,16.1
		c-0.4,0.2-0.8,1.4-0.6,2c0,0.4,0.8,0.8,1.4,1c0.8,0.2,1.8,0.4,2.8,0.4c6.8,0,13.5,0,20.3,0c1.2,0,2.6-0.2,2.6-1.6
		c0-0.8-0.8-2-1.6-2.4c-1.8-1-3.8-1.8-5.6-2.4s-2.4-1.6-2.6-3.4c-0.2-4,1.4-7.4,3.6-10.7c1.2-1.6,2.8-3.4,4.6-4
		c2.4-0.8,5-0.6,7.6-0.6c3.4,0,6.8,0.4,10.3,0.4c4.2,0,6.6,2,8.2,6c1,2.8,1.4,5.6,1.4,8.4c0,2.2-0.8,3.8-3,4.8
		c-1.4,0.6-2.8,1.4-4,2.4c-0.6,0.4-1,1.4-0.8,2c0.2,0.4,1.2,0.8,1.8,0.8c17.9,0.2,35.8,0.4,53.5,0.4c2,0,4-0.2,5.6-1
		c1-0.4,1.6-2,2.2-3c-0.8-0.6-1.6-1.4-2.6-1.8c-0.8-0.4-2,0-2.6-0.6c-1.2-0.8-2.8-2-3-3.2c-0.6-2-0.2-4.4,0-6.6
		c0.4-6.2,1.2-12.5,1.6-18.7c0.4-3.8,0.6-7.6,1-11.5c0.6-5.8,1.2-11.7,1.6-17.5c0.2-1.8,0.6-3.2,2.2-4.2c1.6-1,3.4-2,4.8-3.2
		c0.8-0.6,1.2-1.8,1.6-2.8c-1-0.4-2-1.2-3-1.2C-1225.7,458.6-1230.7,458.6-1235.6,458.6z M-1187.1,490c0.2-5.2,0.6-10.1,0.8-14.7
		c0.2-1.8,0.2-3.6,0.4-5.4s0-4.2,2.8-4.4c4-0.2,7.8-0.6,11.7-0.4c2.4,0.2,4.8,1.4,7.2,2.6c1.8,0.8,2.8,2.4,2.8,4.8
		c0,1.4,0.4,2.8,0.8,4c0.4,0.6,1.4,1.4,2.2,1.2c1-0.2,1.8-0.8,1.8-2.2c0.2-3.4,0.8-7,1.2-10.5c0.6-4,0.2-6.4-4.8-6.4
		c-15.1,0.2-30.4,0-45.5,0c-1.4,0-2.6-0.2-4,0c-1,0.2-2,1-2.4,1.6c-0.2,0.6,0.6,2,1.2,2.4c1.2,0.8,2.6,1.4,4,2
		c2.6,1.2,4.2,3.6,3.8,6.4c-0.2,2.6-0.6,5.2-0.8,7.8c-0.4,5.8-0.8,11.5-1.4,17.3c-0.6,7.8-1.2,15.7-1.8,23.7c-0.2,3.8-2,6.2-5.2,8
		c-1.8,1-4,1.4-4.6,4.4c1.2,0.4,2.4,1,3.6,1c14.7,0,29.2,0,43.9,0c0.6,0,1.4,0,2-0.4c2.8-1.6,5.8-2.8,7.6-5.8c2-3.6,4.6-7,4.4-11.5
		c0-0.8-0.4-1.8-0.6-2.6c-1,0.4-2.2,0.6-2.8,1.2c-1.8,1.4-3.2,3.2-4.8,4.8c-5.8,5.6-13.3,7.8-21.1,8c-3.8,0-6.4-1.8-6-6.2
		c0.4-6.2,0.8-12.3,1.4-18.5c0.2-1.8-0.4-4.2,2-5.2c2.4-1.2,5-1.4,7.6-0.6c3.8,1,7.2,2.4,8,7c0.2,1.2,1.4,2,2.2,3.2
		c0.8-1.2,2-2.2,2.4-3.4c1.6-6.2,1.6-12.9,1.4-19.3c0-0.8-0.6-2-1.2-2.4c-1.2-0.4-2.4,0-3,1.4c-0.4,1.2-1,2.2-1.8,3.2
		C-1175.8,490.8-1181.2,490.8-1187.1,490z M-1067.6,459c-8.7,0-17.1,0-25.8,0c-1.2,0-2.4,0-2.6,1.6c-0.2,1.4,0.4,2.4,1.8,2.8
		c1,0.4,1.8,0.6,2.8,1c2,0.6,3.6,1.8,3.8,4c0.2,2.8,0.2,5.6,0,8.4c-0.6,7.4-1.4,14.9-2.2,22.3c-0.6,6-0.8,12.1-1.4,17.9
		c-0.2,1.8-0.2,3.8-0.6,5.6c-0.8,3.6-3.4,5.2-6.4,6.6c-1,0.4-2,1.8-2,2.6c0,1.6,1.6,1.4,2.8,1.4c11.1,0,22.1,0,33.2,0
		c2.6,0,5.2,0.4,7.8,0.4c2,0,4-0.2,5.8-0.8c3-1,5.2-3,7-5.6c2.4-3.6,4.8-7.2,4.4-11.9c0-0.8-0.8-1.6-1-2.4c-0.6,0.4-1.4,0.6-2,1
		c-1.6,1.4-3.2,3-4.6,4.6c-5.8,6.2-13.5,8.2-21.7,8.2c-3.6,0-6.6-2-6-6.4c0.6-7,1.2-14.1,1.8-20.9c0.2-1,1.4-2.4,2.6-2.8
		c2.8-1.2,5.6-0.4,8.4,0.4c2.4,0.6,4.6,1.4,5.4,4c0.4,1.2,1,2.2,1.4,3.4s1.2,2.4,2.4,1.6c0.8-0.4,1.4-1.6,1.4-2.6
		c0.6-6.4,1.2-12.9,1.8-19.5c0-1-0.8-2-1.2-3c-0.8,0.4-2,0.8-2.6,1.6c-1,1-1.2,2.4-2.2,3.4c-3.2,3.2-7.2,4.4-11.9,4.2
		c-4.2,0-4.8-0.8-4.4-5c0.6-5.2,1-10.5,1.4-15.9c0.2-2.8,0.6-4,3.4-4.2c5-0.2,10.1,0,15.1,0.2c0.8,0,1.6,0.2,2.4,0.6
		c3.8,1.6,4.8,4.6,4.4,8.4c-0.2,1.2,0.2,2.2,1.6,2.4c1.4,0.2,2.2-0.2,2.4-1.8c0.6-4.4,1.6-8.7,1.6-13.1c0-3.6-0.4-3.8-3.8-3.8
		C-1051.3,459.2-1059.3,459-1067.6,459z M-967.6,512.3c-0.2-0.2-0.6-0.6-0.8-0.8c-1.2,0.6-2.6,1-3.6,1.8c-1.2,0.8-2.4,2-3.6,3
		c-4.4,3.6-9.3,6.8-14.9,8c-7.4,1.8-14.5,0.6-19.9-5.2c-5.2-5.6-7.2-12.5-7.8-19.9c-0.8-8.4,0.8-16.3,5-23.7
		c5.6-9.9,16.7-14.3,27.4-10.7c5.6,1.8,9.5,6,12.7,10.9c1.4,2,2.4,4.2,3.4,6.4c0.6,1.2,1.6,2.4,3.2,2c1.6-0.4,1.4-1.8,1-3
		c-0.2-0.6,0-1.2,0-1.8c-0.2-5.8-0.2-11.5-0.4-17.3c0-0.6-0.4-1.4-0.8-1.6c-0.6-0.2-1.4,0-2,0.4c-0.6,0.4-1.2,1-1.6,1.6
		c-1.2,1.4-2.4,1.4-3.8,0.8c-0.6-0.4-1.4-0.6-2-0.8c-9.5-3.4-18.9-5.4-29-2.8c-11.7,3-20.7,9.5-26.2,20.3
		c-4.6,9.3-6.2,19.1-4.2,29.4c1.6,8,5.2,14.7,12.3,19.1c8.4,5.6,17.7,7,27.8,5.2c11.3-2,20.1-7.8,26.8-17.1
		C-968,515.5-968,513.7-967.6,512.3z M-1099.6,469.2L-1099.6,469.2c0.2-2,0.2-4,0.2-6c0-2-1-2.6-3-2c-1.4,0.4-2.8,0.6-4.2,0.4
		c-2.4-0.4-4.8-1-7.2-1.6c-5.4-1-10.7-2.8-16.3-1.4c-3.6,0.8-7.2,1.8-10.1,4.6c-5.6,5.8-7.4,12.7-6.2,20.7
		c1.2,8.4,5.8,13.9,13.9,17.1c5.8,2.2,11.5,5.2,16.9,8.2c2.8,1.6,5,4.4,4.6,7.8c-0.6,4.2-3,8-6.8,9.7c-9.1,3.8-16.9,2-22.9-6.4
		c-2-3-3.6-6.4-5.2-9.7c-0.6-1.4-1.6-2.2-3.2-2c-1.4,0.4-1.6,1.6-1.4,2.8c0.6,5.2,1.4,10.5,2,15.9c0.2,1.6,1.2,2.6,2.2,2.8
		c5.8,1.4,11.7,3.4,17.5,3.8c9.1,0.6,17.1-2.4,22.9-9.7c5.2-6.4,6.2-13.7,5-21.5c-1-6.6-5.6-10.5-11.3-13.1
		c-4.6-2.2-9.7-3.6-14.3-5.8c-2.6-1.2-5.4-2.8-7.4-5c-4.4-4.8-0.6-12.5,4.6-14.7c9.5-3.8,19.9,4.8,22.3,11.1c0.8,2,1.4,4,2.4,5.8
		c0.8,1.6,3.6,1.4,4-0.2c0.4-1.4,0.6-2.8,0.6-4.2C-1099.2,474.5-1099.4,471.9-1099.6,469.2z M-863.2,533.8
		c0.2-5.4,0.6-11.1,0.8-16.5c-0.2,0-0.4-0.2-0.6-0.2c-3.4,3.4-7.4,5.8-9.7,10.3c-2,4,1.2,7,4.2,7C-867,534.4-865.4,534-863.2,533.8z
		 M-902.2,483.1c-2,10.3-1.8,20.3-1.2,30.4c0.2-0.2,0.4-0.2,0.4-0.4c1.8-7.4,3.6-15.1,5.2-22.5c0.2-0.6-0.2-1.6-0.6-2.2
		c-0.8-1.2-1.8-2.4-2.8-3.6C-901.4,484.1-901.8,483.5-902.2,483.1z M-930.4,539.9c0.2-0.2,0.6-0.4,0.8-0.6c-0.8-1.6-1.4-3.2-2.2-4.6
		c-0.8-1.6-2.4-3.2-0.2-5c0.2-0.2,0.4-0.8,0.2-1.2c-0.6-1.6-1.2-3-2-4.4c-1-1.8-1.6-1.6-2.6,0c-2,2.8-1.6,6-1.2,9.1
		c0.2,1.4,0.8,2.4,2.4,2.8c0.6,0.2,1.2,0.6,2,1c-0.4,0.6-0.8,1.2-1.2,2C-933,539.3-931.8,539.5-930.4,539.9z M-917.1,502.4
		c-2.2,0.2-3-0.4-3.2-3.2c0-1.8,0-3.8,0-5.6c-0.2-2.2-1.2-3.2-3-2.8c-0.6,7.8,2.6,14.3,6,21.1c2-3.8,2.8-9.7,1.6-12.7
		C-916.3,500.4-916.7,501.4-917.1,502.4z M-915.1,535.4c0-0.4,0.2-0.8,0-1.2c-1.2-2.6-2.6-5-4-7.6c-0.2-0.2-1.2-0.2-1.6,0
		c-1.2,1-2.6,1.8-3.6,3.2c-0.8,1-1.4,2.8-1.2,3.8c0.4,1.6,2,2.2,3.8,2C-919.5,535.6-917.3,535.4-915.1,535.4z M-928.8,509.1
		c-3,3.2-2.4,10.3,1.6,15.9c1-1.2,2-2.4,3-3.4c1.4-1.6,1.4-2.8,0-4.4C-926,514.5-927.4,511.7-928.8,509.1z M-950.3,537.2
		c0.4-3.2,0.6-6.4-1-9.5c-0.4-0.8-0.6-1.4-1.4-0.6C-955.7,530.2-954.3,535.8-950.3,537.2z M-946.7,459.6c-1.2,1.2-2.2,2.6-3.4,3.8
		c-1.4,1.6-1.4,4,0,5.6C-946.5,465.2-945.7,463-946.7,459.6z M-946.3,527c2.8-2.4,2.2-6-1.4-8.4C-948.7,520.3-948.1,524.6-946.3,527
		z M-911.3,516.3c-4,2.8-4.2,5-0.8,8.9C-911.9,522.4-911.7,519.7-911.3,516.3z M-875.7,540.3c-0.8-2.2-0.2-4.2-2.2-5.6
		C-878.3,538.6-878.3,539.1-875.7,540.3z"/>
	<path fill="#FFFFFF" d="M-773.9,491c1,4.4,1.6,8.4,2.8,12.3c2.6,7.8,5.4,15.5,8.2,23.3c0.6,1.8,1.4,3.6,2.4,5
		c1.2,1.8,2.6,3.4,5.4,3c1.8-0.4,3.6-0.2,5.2,2c-2.8,1-5.4,2-8.2,3c-0.6,0.2-1.2,0.4-1.8,0.4c-1.8,0.2-3.4,0.2-4-2.2
		c-0.4-1.6-1.4-3.2-2.2-4.6c-4.2-7.6-8.7-15.3-13.1-23.3c-3,8.7-8.4,15.3-13.1,22.5c-1.8,2.8-1.8,3.4,0.4,5.8
		c0.8,0.8,1.6,2.2,1.4,3.2c-0.2,1.2-3,1.2-4.4,0c-1.4-1.2-2.8-2.6-4.2-4.2c-2.4-2.6-0.6-5,0.6-7.4c2.8-5,5.6-10.3,7.8-15.7
		c1.2-3.2,1.4-6.8,1.8-10.3c0.4-3.6,0.6-7.2,0.8-10.9c-0.2,0-0.4,0-0.6-0.2c-0.4,2.4-0.8,4.6-1.2,7c-0.2,1.6-0.4,3-2.2,3.6
		c-2.4,0.6-4.2-1.2-3.4-3.6c1.6-5.4,3.2-10.7,4.8-16.1c2-6.4,4.2-12.7,7.6-18.5c1.4-2.2,1.6-4.8,1.2-7.6c-0.2-1.8,0.4-4,1.2-5.8
		c0.8-1.6,4.6-1.6,6.2-0.2c3.4,2.8,3,8.9,0.2,11.3c-2.8,2.4-2.6,4.8-1.2,7.8c0.6,1.6,1.2,3.4,1.2,5c-0.2,6.4,2.2,11.3,7.8,14.5
		c1.6,0.8,2.8,2.2,4,3.6c1,1,0.6,2.2-0.6,2.8c-1.2,0.6-2.2,1-3.4-0.4c-1.8-1.8-4-3.4-6-5.2C-772.3,491.2-772.7,491.4-773.9,491z"/>
	<path fill="#FFFFFF" d="M-815.5,485.5c0.8,5.6,1.4,10.7,2.2,15.7c0.4,2.6,0.8,5,1.2,7.6c0.4,3,0,5.6-2.2,8.2c-1.6,2.2-2.6,5-3,7.8
		c-0.6,3.2-0.4,6.6-0.4,10.1c0,1.6,1,2.6,2.6,3.4c1.4,0.6,2.4,1.6,4.2,2.8c-1.4,0.4-2,0.8-2.8,0.8c-2.6,0-5.4,0-8,0
		c-1.6,0-2.4-0.8-2-2.4c2-5.2,0.8-10.7,0.6-16.1c-3,1-5.4,3-7.4,5.4c-0.6,0.6-0.4,2.2-0.4,3.4c0,1.8,0.4,3.4,0.6,5.2
		c-0.2,0.2-0.4,0.2-0.6,0.4c-1-0.8-2-1.2-2.6-2.2c-1.2-1.8-2-4-3.2-5.8c-0.8-1.6-0.2-2.4,1-3.4c5-3.4,9.7-7.4,12.9-12.9
		c1.4-2.2,1.6-4.2,0.6-6.8c-1.6-4-3-8.2-4-12.5c-0.4-1.8,0.4-4,0.8-6c0.2-1.2,0.4-2.4,0.2-3.6c-1.2,2.6-2.2,5.2-3.4,7.8
		c-0.4,0.8-0.8,1.4-1.4,2.2c-0.8,1.4-2,1.8-3,1c2.6-9.1,5.2-18.1,8-27.2c1-3,2.2-6,3.2-9.1c0.6-2,1-4,1.8-6c0.8-2,2.4-3.4,4.8-3.2
		c2.4,0.4,3,2.4,3.4,4.2c0.4,1.6,0,3.4-0.2,5.2c-0.2,0.8-1.2,1.6-2,2c-1.8,1-2.4,2.2-1.4,4.2c0.8,2,2,4,3,6c1,2,0,4-0.8,5.8
		c-0.8,1.4-0.6,2.6,0.4,3.8c2.2,2.6,4.4,5.4,6.4,8.2c0.4,0.6,1,1.6,0.8,2.2c-0.2,0.8-1,1.4-1.8,1.8c-0.4,0.2-1.4-0.8-1.6-1.2
		C-810.3,489.8-812.5,487.6-815.5,485.5z"/>
	<path fill="#FFFFFF" d="M-962.2,528.2c0.4,0.4,0.8,0.8,1.4,1.4c0,0.4,0.2,1,0.2,1.4c0.6,2.4-0.8,5.2-3.2,5.8c-2.2,0.6-5-1-5.8-3.2
		c-0.8-2.6,0.4-5.2,3-5.8C-965.2,527.6-963.6,528-962.2,528.2z M-962.8,530.8c-0.2-1.6-1.2-2-3.2-1.6c-1.4,0.2-2.6,2.2-2.4,3.6
		c0.2,1.8,2.2,3.2,4,3c1.4-0.2,2.2-1,1.8-2.8c-0.8,0.4-1.4,0.8-2,1c-1.4,0.4-3-1.6-2-2.4S-964,531-962.8,530.8z"/>
	<path fill="#FFFFFF" d="M-1283.4,502c-7,1.8-13.7,0.6-21.3,0.4c2.6-4.8,4.8-9.3,7-13.5c1.2-2,2.4-4,3.6-6c1-1.6,2-2,2.8-0.2
		c1.8,3.6,3.4,7.2,5,10.9C-1285,496.2-1284.4,499-1283.4,502z"/>
</g>
</svg>
