<?xml version="1.0" encoding="utf-8"?>
<!-- Generator: Adobe Illustrator 18.0.0, SVG Export Plug-In . SVG Version: 6.00 Build 0)  -->
<!DOCTYPE svg PUBLIC "-//W3C//DTD SVG 1.1//EN" "http://www.w3.org/Graphics/SVG/1.1/DTD/svg11.dtd">
<svg version="1.1" xmlns="http://www.w3.org/2000/svg" xmlns:xlink="http://www.w3.org/1999/xlink" x="0px" y="0px"
	 viewBox="0 0 54.3 69.5" enable-background="new 0 0 54.3 69.5" xml:space="preserve">
<g id="_x31_170px_grid">
</g>
<g id="Layer_3" display="none">
</g>
<g id="Layer_4">
	<g>
		<defs>
			<rect id="SVGID_1_" x="-367.2" y="365.2" width="1430" height="840"/>
		</defs>
		<clipPath id="SVGID_2_">
			<use xlink:href="#SVGID_1_"  overflow="visible"/>
		</clipPath>
	</g>
	<g>
		<defs>
			<rect id="SVGID_4_" x="1293" y="365.2" width="1430" height="840"/>
		</defs>
		<clipPath id="SVGID_3_">
			<use xlink:href="#SVGID_4_"  overflow="visible"/>
		</clipPath>
	</g>
	<g>
		<g>
			<path fill="none" d="M20.1,39.8v11.3c0,8.5,6.9,15.5,15.5,15.5h0.3c8.5,0,15.5-6.9,15.5-15.5V39.8c-4.3-2.7-9.8-4.2-15.6-4.2
				C29.9,35.6,24.4,37.1,20.1,39.8z"/>
			<path fill="none" d="M49.8,25.1c-0.1-0.1-0.1-0.3-0.2-0.4c-2.5-4.7-7.3-7.9-12.9-8.2v2.1c2,0.4,3.4,2.2,3.4,4.3v4.9
				c0,2.1-1.5,3.9-3.4,4.3v1.6c5.3,0.1,10.4,1.5,14.6,3.9v-5.7C51.3,29.4,50.8,27.1,49.8,25.1C49.8,25.1,49.8,25.1,49.8,25.1z"/>
			<path id="click" fill="#5D5D5D" d="M31.3,27.7v-4.9c0-2.1,1.5-3.9,3.4-4.3v-2.1c-5.6,0.3-10.4,3.6-12.9,8.2c-0.1,0.1-0.1,0.2-0.2,0.4
				c0,0,0,0,0,0.1c-1,2-1.5,4.3-1.5,6.7v5.7c4.2-2.4,9.3-3.7,14.6-3.9V32C32.8,31.6,31.3,29.8,31.3,27.7z"/>
			<path fill="#037EF3" d="M35.8,13.4h-0.3c-10.2,0-18.4,8.3-18.4,18.4v19.3c0,10.2,8.3,18.4,18.4,18.4h0.3
				c10.2,0,18.4-8.3,18.4-18.4V31.8C54.3,21.6,46,13.4,35.8,13.4z M19,32c0-9.1,7.4-16.6,16.6-16.6h0.1v4.9h0c1.4,0,2.5,1.1,2.5,2.5
				v4.9c0,1.4-1.1,2.5-2.5,2.5h0v4.4c-6.5,0-12.3,1.8-16.7,4.7V32z M51.3,51.1c0,8.5-6.9,15.5-15.5,15.5h-0.3
				c-8.5,0-15.5-6.9-15.5-15.5V39.8c4.3-2.7,9.8-4.2,15.6-4.2c5.8,0,11.3,1.5,15.6,4.2V51.1z M51.3,37.5c-4.2-2.4-9.3-3.7-14.6-3.9
				V32c2-0.4,3.4-2.2,3.4-4.3v-4.9c0-2.1-1.5-3.9-3.4-4.3v-2.1c5.6,0.3,10.4,3.6,12.9,8.2c0.1,0.1,0.1,0.3,0.2,0.4c0,0,0,0,0,0
				c1,2,1.5,4.3,1.5,6.7V37.5z"/>
			<path fill="#037EF3" d="M35.7,30.2c-1.4,0-2.5-1.1-2.5-2.5v-4.9c0-1.4,1.1-2.5,2.5-2.5v-4.9h-0.1C26.5,15.5,19,22.9,19,32v7.3
				c4.4-2.9,10.2-4.7,16.7-4.7V30.2z M34.7,33.6c-5.3,0.1-10.4,1.5-14.6,3.9v-5.7c0-2.4,0.5-4.7,1.5-6.7c0,0,0,0,0-0.1
				c0.1-0.1,0.1-0.2,0.2-0.4c2.5-4.7,7.3-7.9,12.9-8.2v2.1c-2,0.4-3.4,2.2-3.4,4.3v4.9c0,2.1,1.5,3.9,3.4,4.3V33.6z"/>
		</g>
		<path fill="#037EF3" d="M18.7,18.7c0.6-0.6,0.6-1.5,0-2.1L9.8,7.7c-0.6-0.6-1.5-0.6-2.1,0c-0.6,0.6-0.6,1.5,0,2.1l8.9,8.9
			c0.3,0.3,0.7,0.4,1,0.4C18.1,19.1,18.4,19,18.7,18.7z"/>
		<path fill="#037EF3" d="M23.2,12c0.1,0.7,0.7,1.2,1.4,1.2c0.1,0,0.2,0,0.3,0c0.8-0.1,1.3-0.9,1.2-1.7L24.3,1.2
			c-0.1-0.8-0.9-1.3-1.7-1.2c-0.8,0.1-1.3,0.9-1.2,1.7L23.2,12z"/>
		<path fill="#037EF3" d="M14.1,23.5L1.7,21.4c-0.8-0.1-1.6,0.4-1.7,1.2c-0.1,0.8,0.4,1.6,1.2,1.7l12.3,2.2c0.1,0,0.2,0,0.3,0
			c0.7,0,1.3-0.5,1.4-1.2C15.4,24.4,14.9,23.7,14.1,23.5z"/>
	</g>
</g>
<g id="Layer_5">
</g>
</svg>
