<?xml version="1.0" encoding="utf-8"?>
<!-- Generator: Adobe Illustrator 18.0.0, SVG Export Plug-In . SVG Version: 6.00 Build 0)  -->
<!DOCTYPE svg PUBLIC "-//W3C//DTD SVG 1.1//EN" "http://www.w3.org/Graphics/SVG/1.1/DTD/svg11.dtd">
<svg version="1.1" xmlns="http://www.w3.org/2000/svg" xmlns:xlink="http://www.w3.org/1999/xlink" x="0px" y="0px"
	 viewBox="0 0 144 93.5" enable-background="new 0 0 144 93.5" xml:space="preserve">
<g id="_x31_170px_grid">
</g>
<g id="Layer_3" display="none">
</g>
<g id="Layer_4">
	<g>
		<defs>
			<rect id="SVGID_1_" x="201.3" y="284.7" width="1430" height="840"/>
		</defs>
		<clipPath id="SVGID_2_">
			<use xlink:href="#SVGID_1_"  overflow="visible"/>
		</clipPath>
	</g>
	<g>
		<g>
			
				<rect x="118.5" y="59.4" transform="matrix(0.707 -0.7072 0.7072 0.707 -11.0523 104.2147)" fill="#037EF3" width="3.6" height="12.1"/>
			
				<rect x="118.5" y="70.5" transform="matrix(-0.7071 -0.7071 0.7071 -0.7071 151.1378 215.6922)" fill="#037EF3" width="3.6" height="12.1"/>
			
				<rect x="124" y="69.2" transform="matrix(0.707 -0.7072 0.7072 0.707 -13.3502 109.7682)" fill="#037EF3" width="3.6" height="3.6"/>
		</g>
		<g>
			<g>
				<path fill="none" stroke="#037EF3" stroke-width="2" stroke-miterlimit="10" d="M44,86.5c0,3.3-2.7,6-6,6H7c-3.3,0-6-2.7-6-6
					v-31c0-3.3,2.7-6,6-6h31c3.3,0,6,2.7,6,6V86.5z"/>
			</g>
			<g>
				
					<rect x="22" y="70.5" transform="matrix(-0.707 0.7072 -0.7072 -0.707 94.6867 113.8562)" fill="#037EF3" width="3.6" height="12.1"/>
				
					<rect x="22" y="59.4" transform="matrix(0.7071 0.7071 -0.7071 0.7071 53.2345 2.3701)" fill="#037EF3" width="3.6" height="12.1"/>
				
					<rect x="16.4" y="69.2" transform="matrix(-0.707 0.7072 -0.7072 -0.707 81.2895 108.3085)" fill="#037EF3" width="3.6" height="3.6"/>
			</g>
			<g>
				<path fill="none" stroke="#037EF3" stroke-width="2" stroke-miterlimit="10" d="M100,55.5c0-3.3,2.7-6,6-6h31c3.3,0,6,2.7,6,6
					v31c0,3.3-2.7,6-6,6h-31c-3.3,0-6-2.7-6-6V55.5z"/>
			</g>
			<g>
				<path fill="none" stroke="#037EF3" stroke-width="2" stroke-miterlimit="10" d="M56.5,44c-3.3,0-6-2.7-6-6V7c0-3.3,2.7-6,6-6h31
					c3.3,0,6,2.7,6,6v31c0,3.3-2.7,6-6,6H56.5z"/>
			</g>
			<g>
				
					<rect x="64.7" y="17.7" transform="matrix(-0.7072 -0.707 0.707 -0.7072 96.6528 87.5363)" fill="#037EF3" width="3.6" height="12.1"/>
				
					<rect x="75.8" y="17.7" transform="matrix(-0.7071 0.7071 -0.7071 -0.7071 149.1841 -14.2814)" fill="#037EF3" width="3.6" height="12.1"/>
				
					<rect x="70.2" y="16.4" transform="matrix(-0.7072 -0.707 0.707 -0.7072 110.0501 81.9854)" fill="#037EF3" width="3.6" height="3.6"/>
			</g>
			<g>
				<path fill="none" stroke="#037EF3" stroke-width="2" stroke-miterlimit="10" d="M87.5,49.5c3.3,0,6,2.7,6,6v31c0,3.3-2.7,6-6,6
					h-31c-3.3,0-6-2.7-6-6v-31c0-3.3,2.7-6,6-6H87.5z"/>
			</g>
			<g>
				
					<rect x="75.8" y="63.7" transform="matrix(0.7072 0.707 -0.707 0.7072 71.9984 -34.4125)" fill="#037EF3" width="3.6" height="12.1"/>
				
					<rect x="64.7" y="63.7" transform="matrix(0.7071 -0.7071 0.7071 0.7071 -29.8406 67.4095)" fill="#037EF3" width="3.6" height="12.1"/>
				
					<rect x="70.2" y="73.5" transform="matrix(0.7072 0.707 -0.707 0.7072 74.295 -28.8646)" fill="#037EF3" width="3.6" height="3.6"/>
			</g>
		</g>
	</g>
	<g>
		<defs>
			<rect id="SVGID_4_" x="1861.5" y="284.7" width="1430" height="840"/>
		</defs>
		<clipPath id="SVGID_3_">
			<use xlink:href="#SVGID_4_"  overflow="visible"/>
		</clipPath>
	</g>
</g>
<g id="Layer_5">
</g>
</svg>
